Coordinates
version=1
nRows=16
nColumns=40
inDegrees=yes

Units are S.I. units (second, meters, Newtons, ...)
If the header above contains a line with 'inDegrees', this indicates whether rotational values are in degrees (yes) or radians (no).

endheader
time	pelvis_tilt	pelvis_list	pelvis_rotation	pelvis_tx	pelvis_ty	pelvis_tz	hip_flexion_r	hip_adduction_r	hip_rotation_r	knee_angle_r	knee_angle_r_beta	ankle_angle_r	subtalar_angle_r	mtp_angle_r	hip_flexion_l	hip_adduction_l	hip_rotation_l	knee_angle_l	knee_angle_l_beta	ankle_angle_l	subtalar_angle_l	mtp_angle_l	lumbar_extension	lumbar_bending	lumbar_rotation	arm_flex_r	arm_add_r	arm_rot_r	elbow_flex_r	pro_sup_r	wrist_flex_r	wrist_dev_r	arm_flex_l	arm_add_l	arm_rot_l	elbow_flex_l	pro_sup_l	wrist_flex_l	wrist_dev_l
      4.36000000	    -35.74282127	      0.03962695	      3.34241345	      0.10862288	      0.43990803	     -1.11941347	    132.34202126	    -48.01400437	     25.28901565	    114.23973524	      1.99385952	     25.28185326	      9.75416209	      0.00000000	    129.80765788	    -46.18434623	     20.05847855	    107.29506155	      1.87265210	     20.90651009	     21.23190871	      0.00000000	      0.00000000	      0.00000000	      0.00000000	     44.99181521	    -15.00019775	     44.99181521	     75.00017604	     45.00000026	      0.00000000	      0.00000000	     44.99181521	    -15.00019775	     44.99181521	     75.00017604	     45.00000026	      0.00000000	      0.00000000
      4.36500000	    -35.74429384	      0.05851982	      3.39285511	      0.10879845	      0.43898137	     -1.11953512	    132.55307925	    -47.97744450	     25.53253800	    114.36120207	      1.99597951	     25.24788960	      9.63151690	      0.00000000	    129.92798028	    -46.16531233	     20.11573077	    107.41433753	      1.87473385	     20.92750627	     21.24949289	      0.00000000	      0.00000000	      0.00000000	      0.00000000	     44.99199957	    -15.00019105	     44.99199957	     75.00017603	     45.00000026	      0.00000000	      0.00000000	     44.99199957	    -15.00019105	     44.99199957	     75.00017603	     45.00000026	      0.00000000	      0.00000000
      4.37000000	    -35.69088182	     -0.01915298	      3.43845974	      0.10899649	      0.43828054	     -1.11980628	    132.55340492	    -48.03246855	     25.61295606	    114.45502633	      1.99761705	     25.33816182	      9.59977476	      0.00000000	    130.08079723	    -46.08585841	     20.29082694	    107.53528974	      1.87684487	     20.93489531	     21.31740804	      0.00000000	      0.00000000	      0.00000000	      0.00000000	     44.99222851	    -15.00018274	     44.99222851	     75.00017601	     45.00000026	      0.00000000	      0.00000000	     44.99222851	    -15.00018274	     44.99222851	     75.00017601	     45.00000026	      0.00000000	      0.00000000
      4.37500000	    -35.59335422	     -0.06424790	      3.55658140	      0.10923415	      0.43773866	     -1.12015858	    132.60086469	    -48.14062786	     25.81538370	    114.55356873	      1.99933694	     25.42011806	      9.58593838	      0.00000000	    130.04992783	    -45.95912050	     20.32784060	    107.63728408	      1.87862501	     21.06479806	     21.36396687	      0.00000000	      0.00000000	      0.00000000	      0.00000000	     44.99237865	    -15.00017738	     44.99237865	     75.00017601	     45.00000026	      0.00000000	      0.00000000	     44.99237865	    -15.00017738	     44.99237865	     75.00017601	     45.00000026	      0.00000000	      0.00000000
      4.38000000	    -35.65572129	      0.01895896	      3.47574117	      0.10944206	      0.43680857	     -1.11995393	    132.78626815	    -47.91471392	     25.97611736	    114.65463472	      2.00110088	     25.34632551	      9.45205496	      0.00000000	    130.28363079	    -46.13405048	     20.42819340	    107.75359846	      1.88065507	     20.94765654	     21.38867820	      0.00000000	      0.00000000	      0.00000000	      0.00000000	     44.99250769	    -15.00017290	     44.99250769	     75.00017600	     45.00000026	      0.00000000	      0.00000000	     44.99250769	    -15.00017290	     44.99250769	     75.00017600	     45.00000026	      0.00000000	      0.00000000
      4.38500000	    -35.56899030	     -0.07189315	      3.55862133	      0.10967133	      0.43635115	     -1.12028945	    132.73543388	    -48.02341272	     26.05689305	    114.73813328	      2.00255820	     25.46200651	      9.45030999	      0.00000000	    130.33128811	    -46.00461457	     20.55867169	    107.84289078	      1.88221352	     21.03342565	     21.48028622	      0.00000000	      0.00000000	      0.00000000	      0.00000000	     44.99265465	    -15.00016774	     44.99265465	     75.00017599	     45.00000026	      0.00000000	      0.00000000	     44.99265465	    -15.00016774	     44.99265465	     75.00017599	     45.00000026	      0.00000000	      0.00000000
      4.39000000	    -35.65645092	     -0.09045838	      3.61846173	      0.10980665	      0.43548052	     -1.12050024	    132.96110223	    -48.00295236	     26.24051203	    114.82701819	      2.00410954	     25.42550662	      9.28521614	      0.00000000	    130.53265253	    -45.93199368	     20.60567603	    107.93954686	      1.88390049	     20.95496791	     21.33649487	      0.00000000	      0.00000000	      0.00000000	      0.00000000	     44.99281362	    -15.00016217	     44.99281362	     75.00017598	     45.00000026	      0.00000000	      0.00000000	     44.99281362	    -15.00016217	     44.99281362	     75.00017598	     45.00000026	      0.00000000	      0.00000000
      4.39500000	    -35.64838976	     -0.07836615	      3.64780336	      0.11001265	      0.43491743	     -1.12058876	    133.04875499	    -47.95446361	     26.39904998	    114.91182776	      2.00558974	     25.45245768	      9.21793828	      0.00000000	    130.59479624	    -45.92731754	     20.64375461	    108.01894693	      1.88528628	     20.97079183	     21.39153442	      0.00000000	      0.00000000	      0.00000000	      0.00000000	     44.99294695	    -15.00015760	     44.99294695	     75.00017598	     45.00000026	      0.00000000	      0.00000000	     44.99294695	    -15.00015760	     44.99294695	     75.00017598	     45.00000026	      0.00000000	      0.00000000
      4.40000000	    -35.61384405	     -0.11128786	      3.72266569	      0.11020879	      0.43449199	     -1.12089064	    133.08952830	    -47.99720466	     26.53834805	    114.97068107	      2.00661693	     25.48676628	      9.16090226	      0.00000000	    130.61643767	    -45.83562424	     20.67962894	    108.10376507	      1.88676663	     21.01777531	     21.38101260	      0.00000000	      0.00000000	      0.00000000	      0.00000000	     44.99309356	    -15.00015282	     44.99309356	     75.00017597	     45.00000026	      0.00000000	      0.00000000	     44.99309356	    -15.00015282	     44.99309356	     75.00017597	     45.00000026	      0.00000000	      0.00000000
      4.40500000	    -35.61806074	     -0.15146997	      3.75386932	      0.11039672	      0.43403218	     -1.12108405	    133.12122830	    -47.99401960	     26.61418454	    115.03113639	      2.00767207	     25.49573357	      9.08225968	      0.00000000	    130.71764204	    -45.78193058	     20.76549087	    108.17530057	      1.88801516	     21.01481076	     21.40728787	      0.00000000	      0.00000000	      0.00000000	      0.00000000	     44.99323251	    -15.00014841	     44.99323251	     75.00017597	     45.00000026	      0.00000000	      0.00000000	     44.99323251	    -15.00014841	     44.99323251	     75.00017597	     45.00000026	      0.00000000	      0.00000000
      4.41000000	    -35.63036072	     -0.12500709	      3.79010503	      0.11058100	      0.43361440	     -1.12120809	    133.21568921	    -47.94240305	     26.76947176	    115.08409509	      2.00859638	     25.50335181	      8.98337221	      0.00000000	    130.73997927	    -45.76566525	     20.74799556	    108.24363391	      1.88920781	     21.06486430	     21.37411259	      0.00000000	      0.00000000	      0.00000000	      0.00000000	     44.99332673	    -15.00014551	     44.99332673	     75.00017596	     45.00000026	      0.00000000	      0.00000000	     44.99332673	    -15.00014551	     44.99332673	     75.00017596	     45.00000026	      0.00000000	      0.00000000
      4.41500000	    -35.64006816	     -0.09457977	      3.80868670	      0.11077303	      0.43327083	     -1.12129220	    133.27930317	    -47.87343983	     26.90096594	    115.13347856	      2.00945828	     25.53083531	      8.91243890	      0.00000000	    130.76044610	    -45.77648799	     20.73712618	    108.30224990	      1.89023085	     21.07425970	     21.36310285	      0.00000000	      0.00000000	      0.00000000	      0.00000000	     44.99366583	    -15.00013463	     44.99366583	     75.00017595	     45.00000026	      0.00000000	      0.00000000	     44.99366583	    -15.00013463	     44.99366583	     75.00017595	     45.00000026	      0.00000000	      0.00000000
      4.42000000	    -35.64331698	     -0.13002378	      3.86910508	      0.11093116	      0.43295579	     -1.12156848	    133.32218800	    -47.89839929	     27.00105678	    115.17539898	      2.01018993	     25.52359783	      8.83832904	      0.00000000	    130.79779893	    -45.68441114	     20.76628571	    108.36225003	      1.89127805	     21.09889455	     21.36330978	      0.00000000	      0.00000000	      0.00000000	      0.00000000	     44.99395619	    -15.00012550	     44.99395619	     75.00017594	     45.00000026	      0.00000000	      0.00000000	     44.99395619	    -15.00012550	     44.99395619	     75.00017594	     45.00000026	      0.00000000	      0.00000000
      4.42500000	    -35.68686170	     -0.17785913	      3.90711346	      0.11104718	      0.43264027	     -1.12181682	    133.35560736	    -47.90458006	     27.04057353	    115.19968551	      2.01061381	     25.51961993	      8.73174201	      0.00000000	    130.89146175	    -45.59160100	     20.81765747	    108.41244619	      1.89215414	     21.10424982	     21.31119398	      0.00000000	      0.00000000	      0.00000000	      0.00000000	     44.99407273	    -15.00012193	     44.99407273	     75.00017593	     45.00000026	      0.00000000	      0.00000000	     44.99407273	    -15.00012193	     44.99407273	     75.00017593	     45.00000026	      0.00000000	      0.00000000
      4.43000000	    -35.59570335	     -0.24272329	      3.86906088	      0.11130462	      0.43271453	     -1.12196127	    133.11206968	    -47.90354961	     26.93641449	    115.20923616	      2.01078050	     25.61106302	      8.76672723	      0.00000000	    130.90203633	    -45.59127935	     20.97989177	    108.46000615	      1.89298421	     21.20273565	     21.49885724	      0.00000000	      0.00000000	      0.00000000	      0.00000000	     44.99419528	    -15.00011820	     44.99419528	     75.00017593	     45.00000026	      0.00000000	      0.00000000	     44.99419528	    -15.00011820	     44.99419528	     75.00017593	     45.00000026	      0.00000000	      0.00000000
      4.43500000	    -35.73359483	     -0.18951470	      3.97004395	      0.11129941	      0.43228324	     -1.12217977	    133.41697850	    -47.85386962	     27.18593717	    115.24367948	      2.01138165	     25.52878593	      8.58148218	      0.00000000	    130.92504432	    -45.49091597	     20.80890911	    108.48906035	      1.89349131	     21.14471375	     21.26070454	      0.00000000	      0.00000000	      0.00000000	      0.00000000	     44.99431492	    -15.00011455	     44.99431492	     75.00017593	     45.00000026	      0.00000000	      0.00000000	     44.99431492	    -15.00011455	     44.99431492	     75.00017593	     45.00000026	      0.00000000	      0.00000000
